<svg xmlns="http://www.w3.org/2000/svg" version="1.1" xmlns:xlink="http://www.w3.org/1999/xlink" width="24" height="24"><svg width="24" height="24" viewBox="0 0 24 24" fill="none" xmlns="http://www.w3.org/2000/svg">
<path fill-rule="evenodd" clip-rule="evenodd" d="M16.2191 4.83803L19.1831 7.80503C21.1951 9.81903 22.2011 10.826 21.9671 11.912C21.7321 12.997 20.4001 13.497 17.7371 14.498L15.8921 15.191C15.1791 15.459 14.8221 15.593 14.5471 15.831C14.4265 15.9364 14.3191 16.0537 14.2251 16.183C14.0131 16.48 13.9121 16.847 13.7101 17.583C13.2501 19.255 13.0201 20.091 12.4711 20.404C12.2411 20.536 11.9791 20.604 11.7131 20.604C11.0831 20.604 10.4701 19.99 9.24412 18.764L7.77812 17.296L6.69912 16.216L5.28512 14.8C4.06712 13.581 3.45812 12.972 3.45512 12.345C3.45311 12.0739 3.52316 11.8072 3.65812 11.572C3.97112 11.029 4.80112 10.8 6.46112 10.342C7.19812 10.139 7.56612 10.038 7.86312 9.82503C7.99579 9.72903 8.11579 9.61836 8.22312 9.49303C8.45912 9.21503 8.59112 8.85603 8.85312 8.13803L9.52212 6.31503C10.5091 3.62203 11.0021 2.27503 12.0901 2.03503C13.1781 1.79503 14.1921 2.80903 16.2191 4.83803Z" fill="#F24141"></path>
<path opacity="0.5" d="M3.30223 21.776L7.77823 17.296L6.69923 16.216L2.22323 20.696C2.08684 20.8406 1.00001 23 1.00001 23C1.00001 23 3.15764 21.9124 3.30223 21.776Z" fill="#F24141"></path>
</svg><style>@media (prefers-color-scheme: light) { :root { filter: none; } }
@media (prefers-color-scheme: dark) { :root { filter: none; } }
</style></svg>